<?xml version="1.0" encoding="UTF-8" standalone="no"?>
<svg
   xmlns:dc="http://purl.org/dc/elements/1.1/"
   xmlns:cc="http://creativecommons.org/ns#"
   xmlns:rdf="http://www.w3.org/1999/02/22-rdf-syntax-ns#"
   xmlns:svg="http://www.w3.org/2000/svg"
   xmlns="http://www.w3.org/2000/svg"
   viewBox="0 0 1920 1080"
   height="1080"
   width="1920"
   xml:space="preserve"
   id="svg2"
   version="1.1"><metadata
     id="metadata8"><rdf:RDF><cc:Work
         rdf:about=""><dc:format>image/svg+xml</dc:format><dc:type
           rdf:resource="http://purl.org/dc/dcmitype/StillImage" /></cc:Work></rdf:RDF></metadata><defs
     id="defs6"><clipPath
       id="clipPath14"
       clipPathUnits="userSpaceOnUse"><path
         id="path12"
         d="M 0,7.920007 H 1440 V 817.92 H 0 Z" /></clipPath><clipPath
       id="clipPath24"
       clipPathUnits="userSpaceOnUse"><path
         style="clip-rule:evenodd"
         id="path22"
         d="M 0,0 H 6000 V 3375 H 0 Z" /></clipPath><clipPath
       id="clipPath36"
       clipPathUnits="userSpaceOnUse"><path
         style="clip-rule:evenodd"
         id="path34"
         d="M 0,0 H 6000 V 3375 H 0 Z" /></clipPath><clipPath
       id="clipPath48"
       clipPathUnits="userSpaceOnUse"><path
         id="path46"
         d="M 0,0 H 6000 V 3375 H 0 Z" /></clipPath><clipPath
       id="clipPath54"
       clipPathUnits="userSpaceOnUse"><path
         id="path52"
         d="M 0,0 H 6000 V 3375 H 0 Z" /></clipPath><clipPath
       id="clipPath60"
       clipPathUnits="userSpaceOnUse"><path
         id="path58"
         d="m 935.4519,1687.4839 h 3207.074 v 822.6562 H 935.4519 Z" /></clipPath><clipPath
       id="clipPath66"
       clipPathUnits="userSpaceOnUse"><path
         id="path64"
         d="m 959.20673,2235.7732 c -14.34253,-42.0393 -23.75483,-90.1235 -23.75483,-137.1826 0,-47.0608 8.06769,-92.3449 22.41028,-134.0757 0.44837,-0.889 0.44837,-1.7766 0.89636,-2.6641 57.37056,-156.7176 208.86436,-272.1473 434.65256,-274.3669 h 2749.0552 v 822.6562 H 1395.4514 c -228.7239,-2.2197 -380.2187,-115.8733 -436.24467,-274.3669 z" /></clipPath><clipPath
       id="clipPath78"
       clipPathUnits="userSpaceOnUse"><path
         id="path76"
         d="M 0,0 H 6000 V 3375 H 0 Z" /></clipPath><clipPath
       id="clipPath84"
       clipPathUnits="userSpaceOnUse"><path
         id="path82"
         d="M 0,0 H 6000 V 3375 H 0 Z" /></clipPath><clipPath
       id="clipPath90"
       clipPathUnits="userSpaceOnUse"><path
         id="path88"
         d="m 935.4519,1688.2651 h 3206.2502 v 821.875 H 935.4519 Z" /></clipPath><clipPath
       id="clipPath96"
       clipPathUnits="userSpaceOnUse"><path
         id="path94"
         d="m 935.4519,1687.488 h 3211.4915 v 822.6479 H 935.4519 Z" /></clipPath><clipPath
       id="clipPath102"
       clipPathUnits="userSpaceOnUse"><path
         id="path100"
         d="m 959.20648,2235.7717 c -14.34241,-42.0388 -23.75458,-90.1225 -23.75458,-137.1811 0,-47.0603 8.06757,-92.3439 22.41004,-134.0742 0.44836,-0.8892 0.44836,-1.7767 0.89636,-2.6642 57.3701,-156.7161 208.8623,-272.1447 434.6483,-274.3642 h 2749.0275 v 822.648 H 1395.4468 c -228.7217,-2.2197 -380.215,-115.8721 -436.24032,-274.3643 z" /></clipPath><clipPath
       id="clipPath114"
       clipPathUnits="userSpaceOnUse"><path
         id="path112"
         d="M 0,0 H 6000 V 3375 H 0 Z" /></clipPath><clipPath
       id="clipPath120"
       clipPathUnits="userSpaceOnUse"><path
         id="path118"
         d="M 0,0 H 6000 V 3375 H 0 Z" /></clipPath><clipPath
       id="clipPath126"
       clipPathUnits="userSpaceOnUse"><path
         id="path124"
         d="M 1396.5088,864.82776 H 4603.583 V 1687.484 H 1396.5088 Z" /></clipPath><clipPath
       id="clipPath132"
       clipPathUnits="userSpaceOnUse"><path
         id="path130"
         d="m 1420.2637,1413.1171 c -14.3427,-42.0393 -23.7549,-90.1236 -23.7549,-137.1828 0,-47.0605 8.0676,-92.3447 22.4103,-134.0754 0.4483,-0.8892 0.4483,-1.7766 0.8963,-2.6642 57.3706,-156.71765 208.8644,-272.14734 434.6526,-274.36694 H 4603.5234 V 1687.484 H 1856.5083 c -228.7239,-2.2198 -380.2187,-115.8733 -436.2446,-274.3669 z" /></clipPath><clipPath
       id="clipPath144"
       clipPathUnits="userSpaceOnUse"><path
         id="path142"
         d="M 0,0 H 6000 V 3375 H 0 Z" /></clipPath><clipPath
       id="clipPath150"
       clipPathUnits="userSpaceOnUse"><path
         id="path148"
         d="M 0,0 H 6000 V 3375 H 0 Z" /></clipPath><clipPath
       id="clipPath156"
       clipPathUnits="userSpaceOnUse"><path
         id="path154"
         d="m 1396.5088,865.60901 h 3206.25 V 1687.484 h -3206.25 z" /></clipPath><clipPath
       id="clipPath162"
       clipPathUnits="userSpaceOnUse"><path
         id="path160"
         d="M 1396.5088,864.83185 H 4608 V 1687.4799 H 1396.5088 Z" /></clipPath><clipPath
       id="clipPath168"
       clipPathUnits="userSpaceOnUse"><path
         id="path166"
         d="m 1420.2634,1413.1157 c -14.3425,-42.0389 -23.7546,-90.1227 -23.7546,-137.1814 0,-47.0602 8.0676,-92.3437 22.41,-134.0742 0.4484,-0.8891 0.4484,-1.7766 0.8964,-2.6641 57.3701,-156.71602 208.8623,-272.14461 434.6483,-274.36415 H 4603.4912 V 1687.4799 H 1856.5037 c -228.7217,-2.2198 -380.215,-115.8722 -436.2403,-274.3642 z" /></clipPath><clipPath
       id="clipPath180"
       clipPathUnits="userSpaceOnUse"><path
         style="clip-rule:evenodd"
         id="path178"
         d="M 0,0 H 6000 V 3375 H 0 Z" /></clipPath></defs><g
     clip-path="url(#clipPath14)"
     transform="matrix(1.3333333,0,0,-1.3333333,0,1090.56)"
     id="g10"><g
       transform="matrix(0.23999999,0,0,-0.23999999,0,817.91998)"
       id="g16"><g
         id="g18"><g
           clip-path="url(#clipPath24)"
           id="g20"><g
             transform="scale(3.125)"
             id="g26"><path
               id="path28"
               style="fill:#ffffff;fill-opacity:1;fill-rule:nonzero;stroke:none"
               d="M 0,0 H 1920 V 1080 H 0 Z" /></g></g></g><g
         id="g30"><g
           clip-path="url(#clipPath36)"
           id="g32"><g
             transform="scale(3.125)"
             id="g38"><path
               id="path40"
               style="fill:#000000;fill-opacity:1;fill-rule:nonzero;stroke:none"
               d="M 0,0 H 1920 V 1080 H 0 Z" /></g></g></g><g
         id="g42"><g
           clip-path="url(#clipPath48)"
           id="g44"><g
             clip-path="url(#clipPath54)"
             id="g50"><g
               clip-path="url(#clipPath60)"
               id="g56"><g
                 clip-path="url(#clipPath66)"
                 id="g62"><g
                   transform="matrix(0,-3.213501,3.213501,0,935.4519,2510.1401)"
                   id="g68"><path
                     id="path70"
                     style="fill:#000000;fill-opacity:1;fill-rule:nonzero;stroke:none"
                     d="M 0,0 H 256 V 998 H 0 Z" /></g></g></g></g></g></g><g
         id="g72"><g
           clip-path="url(#clipPath78)"
           id="g74"><g
             clip-path="url(#clipPath84)"
             id="g80"><g
               clip-path="url(#clipPath90)"
               id="g86"><g
                 clip-path="url(#clipPath96)"
                 id="g92"><g
                   clip-path="url(#clipPath102)"
                   id="g98"><g
                     transform="matrix(0,-3.1249998,3.1249998,0,935.4519,2510.136)"
                     id="g104"><path
                       id="path106"
                       style="fill:none;stroke:#ffffff;stroke-width:1;stroke-linecap:butt;stroke-linejoin:miter;stroke-miterlimit:10;stroke-dasharray:none;stroke-opacity:1"
                       d="M 87.796547,7.60147 C 101.24899,3.0118942 116.6358,0 131.69456,0 c 15.05927,0 29.55002,2.5816264 42.90375,7.1712132 0.28452,0.1434693 0.56851,0.1434693 0.85251,0.2868385 50.14914,18.3584153 87.08629,66.8359243 87.79656,139.0874683 V 1026.2344 H 0 V 147.19835 C 0.71032745,74.007446 37.079102,25.529579 87.796547,7.60147 Z" /></g></g></g></g></g></g></g><g
         id="g108"><g
           clip-path="url(#clipPath114)"
           id="g110"><g
             clip-path="url(#clipPath120)"
             id="g116"><g
               clip-path="url(#clipPath126)"
               id="g122"><g
                 clip-path="url(#clipPath132)"
                 id="g128"><g
                   transform="matrix(0,-3.213501,3.213501,0,1396.5088,1687.484)"
                   id="g134"><path
                     id="path136"
                     style="fill:#00bf63;fill-opacity:1;fill-rule:nonzero;stroke:none"
                     d="M 0,0 H 256 V 998 H 0 Z" /></g></g></g></g></g></g><g
         id="g138"><g
           clip-path="url(#clipPath144)"
           id="g140"><g
             clip-path="url(#clipPath150)"
             id="g146"><g
               clip-path="url(#clipPath156)"
               id="g152"><g
                 clip-path="url(#clipPath162)"
                 id="g158"><g
                   clip-path="url(#clipPath168)"
                   id="g164"><g
                     transform="matrix(0,-3.1249998,3.1249998,0,1396.5088,1687.4799)"
                     id="g170"><path
                       id="path172"
                       style="fill:none;stroke:#ffffff;stroke-width:1;stroke-linecap:butt;stroke-linejoin:miter;stroke-miterlimit:10;stroke-dasharray:none;stroke-opacity:1"
                       d="M 87.796547,7.60147 C 101.24899,3.0118942 116.6358,0 131.69456,0 c 15.05927,0 29.55002,2.5816264 42.90375,7.1712132 0.28452,0.1434693 0.56851,0.1434693 0.85251,0.2868385 50.14914,18.3584153 87.08629,66.8359243 87.79656,139.0874683 V 1026.2344 H 0 V 147.19835 C 0.71032745,74.007446 37.079102,25.529579 87.796547,7.60147 Z" /></g></g></g></g></g></g></g><g
         id="g174"><g
           clip-path="url(#clipPath180)"
           id="g176"><g
             transform="matrix(3.125,0,0,3.125,2119.8701,1113.6719)"
             id="g182"><text
               id="text186"
               style="font-variant:normal;font-weight:normal;font-size:120px;font-family:BrownSugar;-inkscape-font-specification:BrownSugar;writing-mode:lr-tb;fill:#000000;fill-opacity:1;fill-rule:nonzero;stroke:none"
               transform="translate(0,82)"><tspan
                 id="tspan184"
                 y="0"
                 x="0 61.919937 142.79987 236.27977 272.03973 330.95966 414.59958 489.3595 522.83948">PROJECT I</tspan></text>
</g><g
             transform="matrix(3.125,0,0,3.125,1536.3516,1936.3281)"
             id="g188"><text
               id="text192"
               style="font-variant:normal;font-weight:normal;font-size:120px;font-family:BrownSugar;-inkscape-font-specification:BrownSugar;writing-mode:lr-tb;fill:#00bf63;fill-opacity:1;fill-rule:nonzero;stroke:none"
               transform="translate(0,82)"><tspan
                 id="tspan190"
                 y="0"
                 x="0 59.159943 135.95987 205.4398 283.19974 300.59973 370.07965 453.71957 515.63953 592.43945 676.07935">LANDINGPAGE</tspan></text>
</g></g></g></g><path
       id="path194"
       style="fill:#000000;fill-opacity:0;fill-rule:nonzero;stroke:none"
       d="m 335.1583,412.92 h 769.6834 V 610.3575 H 335.1583 Z" /><path
       id="path196"
       style="fill:#000000;fill-opacity:0;fill-rule:nonzero;stroke:none"
       d="m 224.50462,215.48251 h 769.6834 v 197.4375 h -769.6834 z" /></g></svg>